<svg version="1.1" id="Layer_1" xmlns="http://www.w3.org/2000/svg" xmlns:xlink="http://www.w3.org/1999/xlink" x="0px" y="0px"
	 width="100%" viewBox="0 0 225 225" enable-background="new 0 0 225 225" xml:space="preserve">
<path fill="#010101" opacity="1.000000" stroke="none" 
	d="
M153.000000,226.000000 
	C102.000000,226.000000 51.500008,226.000000 1.000007,226.000000 
	C1.000005,151.000000 1.000005,76.000015 1.000002,1.000017 
	C75.999992,1.000011 150.999985,1.000011 225.999969,1.000006 
	C225.999985,75.999985 225.999985,150.999969 226.000000,225.999969 
	C201.833328,226.000000 177.666672,226.000000 153.000000,226.000000 
M59.947899,177.056641 
	C63.907722,172.913330 68.028969,168.911118 71.796844,164.600052 
	C82.731003,152.089554 93.523376,139.455170 104.705833,126.481369 
	C105.985672,128.109589 107.051430,129.334946 107.974442,130.659760 
	C117.771225,144.721268 127.510117,158.823364 137.372940,172.838272 
	C138.526520,174.477478 140.292816,176.819275 141.837097,176.867981 
	C152.877182,177.216049 163.933334,177.053848 175.626785,177.053848 
	C174.849167,175.761200 174.559845,175.208649 174.205505,174.701523 
	C158.773682,152.616257 143.421249,130.474564 127.817299,108.511543 
	C125.148552,104.755196 125.018471,102.350868 128.294205,98.857582 
	C135.461700,91.214058 142.142075,83.112282 148.985397,75.166679 
	C156.092117,66.915268 163.156357,58.627319 170.239182,50.355350 
	C169.996262,49.805702 169.753357,49.256054 169.510452,48.706406 
	C166.173218,49.811756 161.813004,49.946083 159.679398,52.193901 
	C151.329803,60.990467 143.703903,70.472214 135.768692,79.664490 
	C130.808411,85.410530 125.775940,91.094269 120.410072,97.223831 
	C119.028572,95.381248 118.016869,94.111099 117.089157,92.782318 
	C107.757889,79.417023 98.475418,66.017357 89.065041,52.708084 
	C88.120583,51.372314 86.444504,49.687775 85.073891,49.656460 
	C74.143387,49.406769 63.204655,49.517151 51.897141,49.517151 
	C52.315647,50.554821 52.411007,51.019691 52.660423,51.377037 
	C67.796783,73.063072 82.880142,94.786781 98.167168,116.366203 
	C100.360374,119.462173 100.130905,121.253349 97.602684,123.985466 
	C91.274384,130.824158 85.345169,138.032486 79.265106,145.100479 
	C70.307487,155.513611 61.357910,165.933640 51.783688,177.073547 
	C54.905376,177.073547 57.021187,177.073547 59.947899,177.056641 
M105.554802,22.013729 
	C114.177834,22.013729 122.800858,22.013729 131.423889,22.013729 
	C131.423706,21.774576 131.423508,21.535421 131.423325,21.296268 
	C119.375092,21.296268 107.326859,21.296268 95.278625,21.296268 
	C95.280312,21.334867 95.281998,21.373466 95.283684,21.412066 
	C98.383263,21.599413 101.482841,21.786760 105.554802,22.013729 
z"/>
<path fill="#F3F3F3" opacity="1.000000" stroke="none" 
	d="
M59.542450,177.065094 
	C57.021187,177.073547 54.905376,177.073547 51.783688,177.073547 
	C61.357910,165.933640 70.307487,155.513611 79.265106,145.100479 
	C85.345169,138.032486 91.274384,130.824158 97.602684,123.985466 
	C100.130905,121.253349 100.360374,119.462173 98.167168,116.366203 
	C82.880142,94.786781 67.796783,73.063072 52.660423,51.377037 
	C52.411007,51.019691 52.315647,50.554821 51.897141,49.517151 
	C63.204655,49.517151 74.143387,49.406769 85.073891,49.656460 
	C86.444504,49.687775 88.120583,51.372314 89.065041,52.708084 
	C98.475418,66.017357 107.757889,79.417023 117.089157,92.782318 
	C118.016869,94.111099 119.028572,95.381248 120.410072,97.223831 
	C125.775940,91.094269 130.808411,85.410530 135.768692,79.664490 
	C143.703903,70.472214 151.329803,60.990467 159.679398,52.193901 
	C161.813004,49.946083 166.173218,49.811756 169.510452,48.706406 
	C169.753357,49.256054 169.996262,49.805702 170.239182,50.355350 
	C163.156357,58.627319 156.092117,66.915268 148.985397,75.166679 
	C142.142075,83.112282 135.461700,91.214058 128.294205,98.857582 
	C125.018471,102.350868 125.148552,104.755196 127.817299,108.511543 
	C143.421249,130.474564 158.773682,152.616257 174.205505,174.701523 
	C174.559845,175.208649 174.849167,175.761200 175.626785,177.053848 
	C163.933334,177.053848 152.877182,177.216049 141.837097,176.867981 
	C140.292816,176.819275 138.526520,174.477478 137.372940,172.838272 
	C127.510117,158.823364 117.771225,144.721268 107.974442,130.659760 
	C107.051430,129.334946 105.985672,128.109589 104.705833,126.481369 
	C93.523376,139.455170 82.731003,152.089554 71.796844,164.600052 
	C68.028969,168.911118 63.907722,172.913330 59.542450,177.065094 
M127.380699,145.089157 
	C132.532608,152.434433 137.656921,159.799377 142.864883,167.104691 
	C143.687943,168.259216 144.838348,169.948227 145.923706,170.016434 
	C150.903625,170.329285 155.914215,170.154099 161.580460,170.154099 
	C147.223099,149.578751 133.486618,129.893188 119.384270,109.683296 
	C116.880501,112.508873 115.065437,114.864937 112.931168,116.883484 
	C110.566628,119.119797 110.430779,120.917389 112.451591,123.640259 
	C117.498085,130.440002 122.176521,137.512894 127.380699,145.089157 
M113.195602,100.731361 
	C103.776733,87.214378 94.385490,73.677925 84.897316,60.209770 
	C83.921219,58.824234 82.448471,56.970284 81.064690,56.840336 
	C76.515167,56.413097 71.900490,56.679626 65.869003,56.679626 
	C79.591461,76.373055 92.518982,94.925636 105.912628,114.147179 
	C108.999329,110.587349 111.598755,107.827530 113.855713,104.811440 
	C114.389038,104.098732 113.770714,102.524239 113.195602,100.731361 
z"/>
<path fill="#A1A1A1" opacity="1.000000" stroke="none" 
	d="
M105.068611,21.993919 
	C101.482841,21.786760 98.383263,21.599413 95.283684,21.412066 
	C95.281998,21.373466 95.280312,21.334867 95.278625,21.296268 
	C107.326859,21.296268 119.375092,21.296268 131.423325,21.296268 
	C131.423508,21.535421 131.423706,21.774576 131.423889,22.013729 
	C122.800858,22.013729 114.177834,22.013729 105.068611,21.993919 
z"/>
<path fill="#080808" opacity="1.000000" stroke="none" 
	d="
M127.191681,144.782654 
	C122.176521,137.512894 117.498085,130.440002 112.451591,123.640259 
	C110.430779,120.917389 110.566628,119.119797 112.931168,116.883484 
	C115.065437,114.864937 116.880501,112.508873 119.384270,109.683296 
	C133.486618,129.893188 147.223099,149.578751 161.580460,170.154099 
	C155.914215,170.154099 150.903625,170.329285 145.923706,170.016434 
	C144.838348,169.948227 143.687943,168.259216 142.864883,167.104691 
	C137.656921,159.799377 132.532608,152.434433 127.191681,144.782654 
z"/>
<path fill="#070707" opacity="1.000000" stroke="none" 
	d="
M113.438881,101.038773 
	C113.770714,102.524239 114.389038,104.098732 113.855713,104.811440 
	C111.598755,107.827530 108.999329,110.587349 105.912628,114.147179 
	C92.518982,94.925636 79.591461,76.373055 65.869003,56.679626 
	C71.900490,56.679626 76.515167,56.413097 81.064690,56.840336 
	C82.448471,56.970284 83.921219,58.824234 84.897316,60.209770 
	C94.385490,73.677925 103.776733,87.214378 113.438881,101.038773 
z"/>
</svg>